<?xml version="1.0" encoding="UTF-8" standalone="no"?>
<svg
   class="svglite"
   width="805pt"
   height="480pt"
   viewBox="0 0 805 480"
   version="1.1"
   id="svg82"
   sodipodi:docname="VennDiagram_antibioticeffect.svg"
   inkscape:version="1.3 (0e150ed, 2023-07-21)"
   inkscape:export-filename="../../../../Paper/Figure_2.pdf"
   inkscape:export-xdpi="96"
   inkscape:export-ydpi="96"
   xmlns:inkscape="http://www.inkscape.org/namespaces/inkscape"
   xmlns:sodipodi="http://sodipodi.sourceforge.net/DTD/sodipodi-0.dtd"
   xmlns="http://www.w3.org/2000/svg"
   xmlns:svg="http://www.w3.org/2000/svg">
  <sodipodi:namedview
     id="namedview82"
     pagecolor="#ffffff"
     bordercolor="#000000"
     borderopacity="0.25"
     inkscape:showpageshadow="2"
     inkscape:pageopacity="0.0"
     inkscape:pagecheckerboard="0"
     inkscape:deskcolor="#d1d1d1"
     inkscape:document-units="pt"
     inkscape:zoom="0.52235154"
     inkscape:cx="532.20863"
     inkscape:cy="235.4736"
     inkscape:window-width="1280"
     inkscape:window-height="673"
     inkscape:window-x="0"
     inkscape:window-y="25"
     inkscape:window-maximized="0"
     inkscape:current-layer="svg82"
     inkscape:export-bgcolor="#ffffffff" />
  <defs
     id="defs1">
    <style
       type="text/css"
       id="style1"><![CDATA[
    .svglite line, .svglite polyline, .svglite polygon, .svglite path, .svglite rect, .svglite circle {
      fill: none;
      stroke: #000000;
      stroke-linecap: round;
      stroke-linejoin: round;
      stroke-miterlimit: 10.00;
    }
    .svglite text {
      white-space: pre;
    }
  ]]></style>
  </defs>
  <defs
     id="defs2">
    <clipPath
       id="cpMC4wMHw3NDguMDB8MC4wMHw1MDYuMDA=">
      <rect
         x="0"
         y="0"
         width="748"
         height="506"
         id="rect2" />
    </clipPath>
  </defs>
  <defs
     id="defs3">
    <clipPath
       id="cpMC4wMHw3NDguMDB8Ni4xNHw0OTkuODY=">
      <rect
         x="0"
         y="6.1399999"
         width="748"
         height="493.73001"
         id="rect3" />
    </clipPath>
  </defs>
  <polygon
     points="322.69,459.01 334.29,453.26 345.5,446.79 356.28,439.61 366.58,431.77 376.36,423.3 385.59,414.21 394.22,404.56 402.23,394.39 409.57,383.72 416.22,372.62 422.15,361.11 427.34,349.25 431.77,337.08 435.42,324.66 438.27,312.03 440.32,299.24 441.55,286.36 441.96,273.42 441.55,260.48 440.32,247.59 438.27,234.8 435.42,222.17 431.77,209.75 427.34,197.59 422.15,185.72 416.22,174.22 409.57,163.11 402.23,152.44 394.22,142.27 385.59,132.62 376.36,123.54 366.58,115.06 356.28,107.22 345.5,100.05 334.29,93.57 322.69,87.82 310.74,82.82 298.51,78.59 286.03,75.14 273.36,72.48 260.54,70.64 247.64,69.62 234.69,69.41 221.76,70.03 208.89,71.46 196.14,73.71 183.56,76.76 171.2,80.61 159.1,85.23 147.32,90.61 135.91,96.72 124.91,103.55 114.37,111.06 104.32,119.22 94.81,128 85.87,137.37 77.55,147.29 69.87,157.72 62.87,168.61 56.58,179.92 51.01,191.61 46.2,203.63 42.16,215.93 38.91,228.47 36.46,241.18 34.82,254.02 34,266.94 34,279.89 34.82,292.81 36.46,305.65 38.91,318.37 42.16,330.9 46.2,343.2 51.01,355.22 56.58,366.91 62.87,378.22 69.87,389.11 77.55,399.54 85.87,409.46 94.81,418.83 104.32,427.61 114.37,435.78 124.91,443.29 135.91,450.11 147.32,456.23 159.1,461.6 171.2,466.23 183.56,470.07 196.14,473.12 208.89,475.37 221.76,476.81 234.69,477.42 247.64,477.22 260.54,476.19 273.36,474.35 286.03,471.7 298.51,468.25 310.74,464.01 "
     style="fill:#99f099;fill-opacity:0.45;stroke:none;stroke-width:1.07;stroke-linecap:butt;stroke-linejoin:round;stroke-miterlimit:10"
     id="polygon3"
     transform="matrix(0.9471525,0,0,0.9787697,-22.580968,-14.014435)" />
  <polygon
     points="694.19,361.11 699.38,349.25 703.81,337.08 707.46,324.66 710.31,312.03 712.36,299.24 713.59,286.36 714,273.42 713.59,260.48 712.36,247.59 710.31,234.8 707.46,222.17 703.81,209.75 699.38,197.59 694.19,185.72 688.26,174.22 681.61,163.11 674.27,152.44 666.27,142.27 657.63,132.62 648.41,123.54 638.62,115.06 628.32,107.22 617.54,100.05 606.33,93.57 594.73,87.82 582.78,82.82 570.55,78.59 558.07,75.14 545.4,72.48 532.58,70.64 519.68,69.62 506.73,69.41 493.8,70.03 480.93,71.46 468.18,73.71 455.6,76.76 443.24,80.61 431.14,85.23 419.37,90.61 407.95,96.72 396.95,103.55 386.41,111.06 376.36,119.22 366.85,128 357.91,137.37 349.59,147.29 341.91,157.72 334.91,168.61 328.62,179.92 323.05,191.61 318.24,203.63 314.2,215.93 310.95,228.47 308.5,241.18 306.86,254.02 306.04,266.94 306.04,279.89 306.86,292.81 308.5,305.65 310.95,318.37 314.2,330.9 318.24,343.2 323.05,355.22 328.62,366.91 334.91,378.22 341.91,389.11 349.59,399.54 357.91,409.46 366.85,418.83 376.36,427.61 386.41,435.78 396.95,443.29 407.95,450.11 419.37,456.23 431.14,461.6 443.24,466.23 455.6,470.07 468.18,473.12 480.93,475.37 493.8,476.81 506.73,477.42 519.68,477.22 532.58,476.19 545.4,474.35 558.07,471.7 570.55,468.25 582.78,464.01 594.73,459.01 606.33,453.26 617.54,446.79 628.32,439.61 638.62,431.77 648.41,423.3 657.63,414.21 666.27,404.56 674.27,394.39 681.61,383.72 688.26,372.62 "
     style="fill:#ffc0de;fill-opacity:0.45;stroke:none;stroke-width:1.07;stroke-linecap:butt;stroke-linejoin:round;stroke-miterlimit:10"
     id="polygon4"
     transform="matrix(1.3168095,0,0,1.0444227,-142.89384,-25.330933)" />
  <text
     x="210.72"
     y="28.58"
     text-anchor="middle"
     style="font-style:normal;font-variant:normal;font-weight:bold;font-stretch:normal;font-size:22.76px;font-family:Arial;-inkscape-font-specification:'Arial Bold';white-space:pre;fill:#008000"
     textLength="25.27"
     lengthAdjust="spacingAndGlyphs"
     id="text6"
     transform="matrix(2.8249236,0,0,0.97348902,-398.01457,16.975999)">Control</text>
  <text
     x="537.16998"
     y="28.58"
     text-anchor="middle"
     style="font-style:normal;font-variant:normal;font-weight:bold;font-stretch:normal;font-size:24.3187px;font-family:Arial;-inkscape-font-specification:'Arial Bold';white-space:pre;fill:#a800a8;fill-opacity:1"
     textLength="40.459999"
     lengthAdjust="spacingAndGlyphs"
     id="text7"
     transform="matrix(1.1936217,0,0,0.81840073,-101.4464,17.789466)">CCl<tspan
   style="font-style:normal;font-variant:normal;font-weight:bold;font-stretch:normal;font-size:24.3187px;font-family:Arial;-inkscape-font-specification:'Arial Bold';baseline-shift:sub;fill:#a800a8;fill-opacity:1"
   id="tspan82">4</tspan></text>
  <text
     x="210.72"
     y="245.75"
     text-anchor="middle"
     style="font-size:8.54px;font-family:Arial;white-space:pre;fill:#0000ff"
     textLength="161.72"
     lengthAdjust="spacingAndGlyphs"
     id="text8"
     transform="matrix(0.99999998,0,0,1.0104743,-45.93744,-29.150845)">ASV160 Lachnospiraceae NK4A136 group</text>
  <text
     x="210.72"
     y="258.04001"
     text-anchor="middle"
     style="font-size:8.54px;font-family:Arial;white-space:pre;fill:#0000ff"
     textLength="161.72"
     lengthAdjust="spacingAndGlyphs"
     id="text9"
     transform="matrix(0.99999998,0,0,1.0104743,-45.93744,-29.150845)">ASV207 Lachnospiraceae NK4A136 group</text>
  <text
     x="210.72"
     y="270.32999"
     text-anchor="middle"
     style="font-size:8.54px;font-family:Arial;white-space:pre;fill:#0000ff"
     textLength="107.63"
     lengthAdjust="spacingAndGlyphs"
     id="text10"
     transform="matrix(0.99999998,0,0,1.0104743,-45.93744,-29.150845)">ASV225 Clostridia UCG-014</text>
  <text
     x="210.72"
     y="282.62"
     text-anchor="middle"
     style="font-size:8.54px;font-family:Arial;white-space:pre;fill:#0000ff"
     textLength="89.629997"
     lengthAdjust="spacingAndGlyphs"
     id="text11"
     transform="matrix(0.99999998,0,0,1.0104743,-45.93744,-29.150845)">ASV292<tspan
   style="font-style:italic;font-variant:normal;font-weight:normal;font-stretch:normal;font-family:Arial;-inkscape-font-specification:'Arial Italic'"
   id="tspan1"> Enterorhabdus</tspan></text>
  <text
     x="210.72"
     y="294.91"
     text-anchor="middle"
     style="font-size:8.54px;font-family:Arial;white-space:pre;fill:#0000ff"
     textLength="78.720001"
     lengthAdjust="spacingAndGlyphs"
     id="text12"
     transform="matrix(0.99999998,0,0,1.0104743,-45.93744,-29.150845)">ASV371 <tspan
   style="font-style:italic;font-variant:normal;font-weight:normal;font-stretch:normal;font-family:Arial;-inkscape-font-specification:'Arial Italic'"
   id="tspan2">Fournierella</tspan></text>
  <text
     x="210.72"
     y="307.20001"
     text-anchor="middle"
     style="font-size:8.54px;font-family:Arial;white-space:pre;fill:#0000ff"
     textLength="110.94"
     lengthAdjust="spacingAndGlyphs"
     id="text13"
     transform="matrix(0.99999998,0,0,1.0104743,-45.93744,-29.150845)">ASV509 <tspan
   style="font-style:italic;font-variant:normal;font-weight:normal;font-stretch:normal;font-family:Arial;-inkscape-font-specification:'Arial Italic'"
   id="tspan3">Escherichia-Shigella</tspan></text>
  <text
     x="537.16998"
     y="-98.419998"
     text-anchor="middle"
     style="font-size:8.54px;font-family:Arial;white-space:pre;fill:#ff0000"
     textLength="84.860001"
     lengthAdjust="spacingAndGlyphs"
     id="text14"
     transform="matrix(0.99999998,0,0,1.0104743,104.58906,195.472)">ASV17 <tspan
   style="font-style:italic;font-variant:normal;font-weight:normal;font-stretch:normal;font-family:Arial;-inkscape-font-specification:'Arial Italic'"
   id="tspan31">Ruminococcus</tspan></text>
  <text
     x="537.16998"
     y="-86.129997"
     text-anchor="middle"
     style="font-size:8.54px;font-family:Arial;white-space:pre;fill:#ff0000"
     textLength="89.139999"
     lengthAdjust="spacingAndGlyphs"
     id="text15"
     transform="matrix(0.99999998,0,0,1.0104743,104.58906,195.472)">ASV38 Muribaculaceae</text>
  <text
     x="537.16998"
     y="-73.830002"
     text-anchor="middle"
     style="font-size:8.54px;font-family:Arial;white-space:pre;fill:#0000ff"
     textLength="102.89"
     lengthAdjust="spacingAndGlyphs"
     id="text16"
     transform="matrix(0.99999998,0,0,1.0104743,104.58906,195.472)">ASV40 Clostridia UCG-014</text>
  <text
     x="537.16998"
     y="-61.540001"
     text-anchor="middle"
     style="font-size:8.54px;font-family:Arial;white-space:pre;fill:#ff0000"
     textLength="177.34"
     lengthAdjust="spacingAndGlyphs"
     id="text17"
     transform="matrix(0.99999998,0,0,1.0104743,104.58906,193.58927)"><tspan
       sodipodi:role="line"
       id="tspan85"
       x="537.16998"
       y="-61.540001">ASV49 <tspan
   style="font-style:italic;font-variant:normal;font-weight:normal;font-stretch:normal;font-family:Arial;-inkscape-font-specification:'Arial Italic'"
   id="tspan29">[Eubacterium]</tspan></tspan><tspan
       sodipodi:role="line"
       id="tspan86"
       x="537.16998"
       y="-50.853424"><tspan
   style="font-style:italic;font-variant:normal;font-weight:normal;font-stretch:normal;font-family:Arial;-inkscape-font-specification:'Arial Italic'"
   id="tspan30"> coprostanoligenes</tspan> group</tspan></text>
  <text
     x="537.16998"
     y="-49.25"
     text-anchor="middle"
     style="font-size:8.54px;font-family:Arial;white-space:pre;fill:#ff0000"
     textLength="89.139999"
     lengthAdjust="spacingAndGlyphs"
     id="text18"
     transform="matrix(0.99999998,0,0,1.0104743,104.58905,204.88569)">ASV58 Muribaculaceae</text>
  <text
     x="537.16998"
     y="-36.959999"
     text-anchor="middle"
     style="font-size:8.54px;font-family:Arial;white-space:pre;fill:#ff0000"
     textLength="102.89"
     lengthAdjust="spacingAndGlyphs"
     id="text19"
     transform="matrix(0.99999998,0,0,1.0104743,102.74259,202.73527)">ASV61 Clostridia UCG-014</text>
  <text
     x="537.16998"
     y="-24.67"
     text-anchor="middle"
     style="font-size:8.54px;font-family:Arial;white-space:pre;fill:#ff0000"
     textLength="89.139999"
     lengthAdjust="spacingAndGlyphs"
     id="text20"
     transform="matrix(0.99999998,0,0,1.0104743,102.74259,202.27287)">ASV65 Muribaculaceae</text>
  <text
     x="537.16998"
     y="-12.38"
     text-anchor="middle"
     style="font-size:8.54px;font-family:Arial;white-space:pre;fill:#0000ff"
     textLength="177.34"
     lengthAdjust="spacingAndGlyphs"
     id="text21"
     transform="matrix(0.99999998,0,0,1.0104743,102.74259,202.27287)">ASV69 <tspan
   style="font-style:italic;font-variant:normal;font-weight:normal;font-stretch:normal;font-family:Arial;-inkscape-font-specification:'Arial Italic'"
   id="tspan28">[Eubacterium] coprostanoligenes</tspan> group</text>
  <text
     x="537.16998"
     y="-0.085000001"
     text-anchor="middle"
     style="font-size:8.54px;font-family:Arial;white-space:pre;fill:#ff0000"
     textLength="128.50999"
     lengthAdjust="spacingAndGlyphs"
     id="text22"
     transform="matrix(0.99999998,0,0,1.0104743,102.74259,202.27287)">ASV104 Prevotellaceae UCG-001</text>
  <text
     x="537.16998"
     y="12.21"
     text-anchor="middle"
     style="font-size:8.54px;font-family:Arial;white-space:pre;fill:#ff0000"
     textLength="93.889999"
     lengthAdjust="spacingAndGlyphs"
     id="text23"
     transform="matrix(0.99999998,0,0,1.0104743,102.74259,202.27287)">ASV109 Muribaculaceae</text>
  <text
     x="537.16998"
     y="24.5"
     text-anchor="middle"
     style="font-size:8.54px;font-family:Arial;white-space:pre;fill:#ff0000"
     textLength="93.889999"
     lengthAdjust="spacingAndGlyphs"
     id="text24"
     transform="matrix(0.99999998,0,0,1.0104743,102.74259,202.27287)">ASV126 Muribaculaceae</text>
  <text
     x="537.16998"
     y="36.790001"
     text-anchor="middle"
     style="font-size:8.54px;font-family:Arial;white-space:pre;fill:#0000ff"
     textLength="107.63"
     lengthAdjust="spacingAndGlyphs"
     id="text25"
     transform="matrix(0.99999998,0,0,1.0104743,102.74259,202.27287)">ASV142 Clostridia UCG-014</text>
  <text
     x="537.16998"
     y="49.080002"
     text-anchor="middle"
     style="font-size:8.54px;font-family:Arial;white-space:pre;fill:#0000ff"
     textLength="107.63"
     lengthAdjust="spacingAndGlyphs"
     id="text26"
     transform="matrix(0.99999998,0,0,1.0104743,102.74259,202.27287)">ASV146 Clostridia UCG-014</text>
  <text
     x="537.16998"
     y="61.369999"
     text-anchor="middle"
     style="font-size:8.54px;font-family:Arial;white-space:pre;fill:#ff0000"
     textLength="98.639999"
     lengthAdjust="spacingAndGlyphs"
     id="text27"
     transform="matrix(0.99999998,0,0,1.0104743,102.74259,202.27287)">ASV148 Lachnospiraceae</text>
  <text
     x="537.16998"
     y="73.660004"
     text-anchor="middle"
     style="font-size:8.54px;font-family:Arial;white-space:pre;fill:#0000ff"
     textLength="89.629997"
     lengthAdjust="spacingAndGlyphs"
     id="text28"
     transform="matrix(0.99999998,0,0,1.0104743,102.74259,202.27287)">ASV162 <tspan
   style="font-style:italic;font-variant:normal;font-weight:normal;font-stretch:normal;font-family:Arial;-inkscape-font-specification:'Arial Italic'"
   id="tspan27">Enterorhabdus</tspan></text>
  <text
     x="537.16998"
     y="85.959999"
     text-anchor="middle"
     style="font-size:8.54px;font-family:Arial;white-space:pre;fill:#ff0000"
     textLength="96.239998"
     lengthAdjust="spacingAndGlyphs"
     id="text29"
     transform="matrix(0.99999998,0,0,1.0104743,-45.93744,-21.604965)">ASV170 Oscillospiraceae</text>
  <text
     x="537.16998"
     y="98.25"
     text-anchor="middle"
     style="font-size:8.54px;font-family:Arial;white-space:pre;fill:#0000ff"
     textLength="107.63"
     lengthAdjust="spacingAndGlyphs"
     id="text30"
     transform="matrix(0.99999998,0,0,1.0104743,-45.93744,-21.604965)">ASV179 Clostridia UCG-014</text>
  <text
     x="537.16998"
     y="110.54"
     text-anchor="middle"
     style="font-size:8.54px;font-family:Arial;white-space:pre;fill:#ff0000"
     textLength="93.889999"
     lengthAdjust="spacingAndGlyphs"
     id="text31"
     transform="matrix(0.99999998,0,0,1.0104743,-45.93744,-21.604965)">ASV182 Muribaculaceae</text>
  <text
     x="537.16998"
     y="122.83"
     text-anchor="middle"
     style="font-size:8.54px;font-family:Arial;white-space:pre;fill:#0000ff"
     textLength="107.63"
     lengthAdjust="spacingAndGlyphs"
     id="text32"
     transform="matrix(0.99999998,0,0,1.0104743,-45.93744,-21.604965)">ASV186 Clostridia UCG-014</text>
  <text
     x="537.16998"
     y="135.12"
     text-anchor="middle"
     style="font-size:8.54px;font-family:Arial;white-space:pre;fill:#0000ff"
     textLength="107.63"
     lengthAdjust="spacingAndGlyphs"
     id="text33"
     transform="matrix(0.99999998,0,0,1.0104743,-45.93744,-21.604965)">ASV190 Clostridia UCG-014</text>
  <text
     x="537.16998"
     y="147.41"
     text-anchor="middle"
     style="font-size:8.54px;font-family:Arial;white-space:pre;fill:#ff0000"
     textLength="70.190002"
     lengthAdjust="spacingAndGlyphs"
     id="text34"
     transform="matrix(1.8123669,0,0,1.0104743,-483.39522,-21.604965)">ASV196 Ruminococcaceae UBA1819</text>
  <text
     x="537.16998"
     y="159.71001"
     text-anchor="middle"
     style="font-size:8.54px;font-family:Arial;white-space:pre;fill:#ff0000"
     textLength="74.43"
     lengthAdjust="spacingAndGlyphs"
     id="text35"
     transform="matrix(1.8345014,0,0,1.0104743,-495.05032,-21.604965)">ASV203 <tspan
   style="font-style:italic;font-variant:normal;font-weight:normal;font-stretch:normal;font-family:Arial;-inkscape-font-specification:'Arial Italic'"
   id="tspan8">Frisingicoccus caecimuris</tspan></text>
  <text
     x="537.16998"
     y="172"
     text-anchor="middle"
     style="font-size:8.54px;font-family:Arial;white-space:pre;fill:#ff0000"
     textLength="98.639999"
     lengthAdjust="spacingAndGlyphs"
     id="text36"
     transform="matrix(0.99999998,0,0,1.0104743,-45.93744,-21.604965)">ASV206 Lachnospiraceae</text>
  <text
     x="537.16998"
     y="184.28999"
     text-anchor="middle"
     style="font-size:8.54px;font-family:Arial;white-space:pre;fill:#ff0000"
     textLength="182.09"
     lengthAdjust="spacingAndGlyphs"
     id="text37"
     transform="matrix(0.99999998,0,0,1.0104743,-45.93744,-21.604965)">ASV211 <tspan
   style="font-style:italic;font-variant:normal;font-weight:normal;font-stretch:normal;font-family:Arial;-inkscape-font-specification:'Arial Italic'"
   id="tspan9">[Eubacterium] coprostanoligenes</tspan> group</text>
  <text
     x="537.16998"
     y="196.58"
     text-anchor="middle"
     style="font-size:8.54px;font-family:Arial;white-space:pre;fill:#0000ff"
     textLength="56.91"
     lengthAdjust="spacingAndGlyphs"
     id="text38"
     transform="matrix(0.99999998,0,0,1.0104743,-45.93744,-21.604965)">ASV223<tspan
   style="font-style:italic;font-variant:normal;font-weight:normal;font-stretch:normal;font-family:Arial;-inkscape-font-specification:'Arial Italic'"
   id="tspan10"> Dorea</tspan></text>
  <text
     x="537.16998"
     y="208.87"
     text-anchor="middle"
     style="font-size:8.54px;font-family:Arial;white-space:pre;fill:#ff0000"
     textLength="110.96"
     lengthAdjust="spacingAndGlyphs"
     id="text39"
     transform="matrix(0.99999998,0,0,1.0104743,-45.93744,-21.604965)">ASV226 Desulfovibrionaceae</text>
  <text
     x="537.16998"
     y="221.16"
     text-anchor="middle"
     style="font-size:8.54px;font-family:Arial;white-space:pre;fill:#0000ff"
     textLength="116.62"
     lengthAdjust="spacingAndGlyphs"
     id="text40"
     transform="matrix(0.99999998,0,0,1.0104743,-45.93744,-21.604965)">ASV242 <tspan
   style="font-style:italic;font-variant:normal;font-weight:normal;font-stretch:normal;font-family:Arial;-inkscape-font-specification:'Arial Italic'"
   id="tspan11">Erysipelatoclostridium</tspan></text>
  <text
     x="537.16998"
     y="233.46001"
     text-anchor="middle"
     style="font-size:8.54px;font-family:Arial;white-space:pre;fill:#0000ff"
     textLength="107.63"
     lengthAdjust="spacingAndGlyphs"
     id="text41"
     transform="matrix(0.99999998,0,0,1.0104743,-45.93744,-21.604965)">ASV243 Clostridia UCG-014</text>
  <text
     x="537.16998"
     y="245.75"
     text-anchor="middle"
     style="font-size:8.54px;font-family:Arial;white-space:pre;fill:#0000ff"
     textLength="107.63"
     lengthAdjust="spacingAndGlyphs"
     id="text42"
     transform="matrix(0.99999998,0,0,1.0104743,-45.93744,-21.604965)">ASV264 Clostridia UCG-014</text>
  <text
     x="537.16998"
     y="258.04001"
     text-anchor="middle"
     style="font-size:8.54px;font-family:Arial;white-space:pre;fill:#0000ff"
     textLength="107.63"
     lengthAdjust="spacingAndGlyphs"
     id="text43"
     transform="matrix(0.99999998,0,0,1.0104743,-45.93744,-21.604965)">ASV265 Clostridia UCG-014</text>
  <text
     x="537.16998"
     y="270.32999"
     text-anchor="middle"
     style="font-size:8.54px;font-family:Arial;white-space:pre;fill:#ff0000"
     textLength="93.889999"
     lengthAdjust="spacingAndGlyphs"
     id="text44"
     transform="matrix(0.99999998,0,0,1.0104743,-45.93744,-21.604965)">ASV269 Muribaculaceae</text>
  <text
     x="537.16998"
     y="282.62"
     text-anchor="middle"
     style="font-size:8.54px;font-family:Arial;white-space:pre;fill:#0000ff"
     textLength="107.63"
     lengthAdjust="spacingAndGlyphs"
     id="text45"
     transform="matrix(0.99999998,0,0,1.0104743,-45.93744,-21.604965)">ASV300 Clostridia UCG-014</text>
  <text
     x="537.16998"
     y="294.91"
     text-anchor="middle"
     style="font-size:8.54px;font-family:Arial;white-space:pre;fill:#ff0000"
     textLength="72.550003"
     lengthAdjust="spacingAndGlyphs"
     id="text46"
     transform="matrix(0.99999998,0,0,1.0104743,-45.93744,-21.604965)">ASV302 <tspan
   style="font-style:italic;font-variant:normal;font-weight:normal;font-stretch:normal;font-family:Arial;-inkscape-font-specification:'Arial Italic'"
   id="tspan12">Roseburia</tspan></text>
  <text
     x="537.16998"
     y="307.20001"
     text-anchor="middle"
     style="font-size:8.54px;font-family:Arial;white-space:pre;fill:#0000ff"
     textLength="107.63"
     lengthAdjust="spacingAndGlyphs"
     id="text47"
     transform="matrix(0.99999998,0,0,1.0104743,-45.93744,-21.604965)">ASV310 Clostridia UCG-014</text>
  <text
     x="537.16998"
     y="319.5"
     text-anchor="middle"
     style="font-size:8.54px;font-family:Arial;white-space:pre;fill:#ff0000"
     textLength="137.03999"
     lengthAdjust="spacingAndGlyphs"
     id="text48"
     transform="matrix(0.99999998,0,0,1.0104743,-45.93744,-21.604965)">ASV324 Defluviitaleaceae UCG-011</text>
  <text
     x="537.16998"
     y="331.79001"
     text-anchor="middle"
     style="font-size:8.54px;font-family:Arial;white-space:pre;fill:#0000ff"
     textLength="110.02"
     lengthAdjust="spacingAndGlyphs"
     id="text49"
     transform="matrix(0.99999998,0,0,1.0104743,-45.93744,-21.604965)">ASV326 Gastranaerophilales</text>
  <text
     x="537.16998"
     y="344.07999"
     text-anchor="middle"
     style="font-size:8.54px;font-family:Arial;white-space:pre;fill:#ff0000"
     textLength="162.63"
     lengthAdjust="spacingAndGlyphs"
     id="text50"
     transform="matrix(0.99999998,0,0,1.0104743,-45.93744,-21.604965)">ASV351<tspan
   style="font-style:italic;font-variant:normal;font-weight:normal;font-stretch:normal;font-family:Arial;-inkscape-font-specification:'Arial Italic'"
   id="tspan13"> [Eubacterium] xylanophilum</tspan> group</text>
  <text
     x="537.16998"
     y="356.37"
     text-anchor="middle"
     style="font-size:8.54px;font-family:Arial;white-space:pre;fill:#ff0000"
     textLength="89.610001"
     lengthAdjust="spacingAndGlyphs"
     id="text51"
     transform="matrix(0.99999998,0,0,1.0104743,-45.93744,-21.604965)">ASV355 <tspan
   style="font-style:italic;font-variant:normal;font-weight:normal;font-stretch:normal;font-family:Arial;-inkscape-font-specification:'Arial Italic'"
   id="tspan14">Marvinbryantia</tspan></text>
  <text
     x="537.16998"
     y="368.66"
     text-anchor="middle"
     style="font-size:8.54px;font-family:Arial;white-space:pre;fill:#ff0000"
     textLength="92.93"
     lengthAdjust="spacingAndGlyphs"
     id="text52"
     transform="matrix(0.99999998,0,0,1.0104743,-45.93744,-21.604965)">ASV375 <tspan
   style="font-style:italic;font-variant:normal;font-weight:normal;font-stretch:normal;font-family:Arial;-inkscape-font-specification:'Arial Italic'"
   id="tspan15">Colidextribacter</tspan></text>
  <text
     x="537.16998"
     y="380.95001"
     text-anchor="middle"
     style="font-size:8.54px;font-family:Arial;white-space:pre;fill:#ff0000"
     textLength="98.639999"
     lengthAdjust="spacingAndGlyphs"
     id="text53"
     transform="matrix(0.99999998,0,0,1.0104743,-45.93744,-21.604965)">ASV377 Lachnospiraceae</text>
  <text
     x="537.16998"
     y="393.25"
     text-anchor="middle"
     style="font-size:8.54px;font-family:Arial;white-space:pre;fill:#ff0000"
     textLength="73.019997"
     lengthAdjust="spacingAndGlyphs"
     id="text54"
     transform="matrix(0.99999998,0,0,1.0104743,-45.93744,-21.604965)">ASV379 <tspan
   style="font-style:italic;font-variant:normal;font-weight:normal;font-stretch:normal;font-family:Arial;-inkscape-font-specification:'Arial Italic'"
   id="tspan16">Paludicola</tspan></text>
  <text
     x="537.16998"
     y="405.54001"
     text-anchor="middle"
     style="font-size:8.54px;font-family:Arial;white-space:pre;fill:#ff0000"
     textLength="71.120003"
     lengthAdjust="spacingAndGlyphs"
     id="text55"
     transform="matrix(2.8448984,0,0,1.0104743,-1036.0849,-21.604965)">ASV430 Lachnospiraceae NK4A136 group bacterium</text>
  <text
     x="537.16998"
     y="417.82999"
     text-anchor="middle"
     style="font-size:8.54px;font-family:Arial;white-space:pre;fill:#ff0000"
     textLength="98.639999"
     lengthAdjust="spacingAndGlyphs"
     id="text56"
     transform="matrix(0.99999998,0,0,1.0104743,-45.93744,-21.604965)">ASV440 Lachnospiraceae</text>
  <text
     x="537.16998"
     y="430.12"
     text-anchor="middle"
     style="font-size:8.54px;font-family:Arial;white-space:pre;fill:#0000ff"
     textLength="98.639999"
     lengthAdjust="spacingAndGlyphs"
     id="text57"
     transform="matrix(0.99999998,0,0,1.0104743,-45.93744,-21.604965)">ASV446 Lachnospiraceae</text>
  <text
     x="537.16998"
     y="442.41"
     text-anchor="middle"
     style="font-size:8.54px;font-family:Arial;white-space:pre;fill:#ff0000"
     textLength="107.63"
     lengthAdjust="spacingAndGlyphs"
     id="text58"
     transform="matrix(0.99999998,0,0,1.0104743,-45.93744,-21.604965)">ASV456 Clostridia UCG-014</text>
  <text
     x="537.16998"
     y="454.70001"
     text-anchor="middle"
     style="font-size:8.54px;font-family:Arial;white-space:pre;fill:#0000ff"
     textLength="137.98"
     lengthAdjust="spacingAndGlyphs"
     id="text59"
     transform="matrix(0.99999998,0,0,1.0104743,-45.93744,-21.604965)">ASV468 <tspan
   style="font-style:italic;font-variant:normal;font-weight:normal;font-stretch:normal;font-family:Arial;-inkscape-font-specification:'Arial Italic'"
   id="tspan17">Candidatus Saccharimonas</tspan></text>
  <text
     x="537.16998"
     y="467"
     text-anchor="middle"
     style="font-size:8.54px;font-family:Arial;white-space:pre;fill:#ff0000"
     textLength="102.41"
     lengthAdjust="spacingAndGlyphs"
     id="text60"
     transform="matrix(0.99999998,0,0,1.0104743,-45.93744,-21.604965)">ASV484 <tspan
   style="font-style:italic;font-variant:normal;font-weight:normal;font-stretch:normal;font-family:Arial;-inkscape-font-specification:'Arial Italic'"
   id="tspan19">Lachnoclostridium</tspan></text>
  <text
     x="537.16998"
     y="479.29001"
     text-anchor="middle"
     style="font-size:8.54px;font-family:Arial;white-space:pre;fill:#0000ff"
     textLength="87.709999"
     lengthAdjust="spacingAndGlyphs"
     id="text61"
     transform="matrix(0.99999998,0,0,1.0104743,-45.93744,-21.604965)">ASV501 <tspan
   style="font-style:italic;font-variant:normal;font-weight:normal;font-stretch:normal;font-family:Arial;-inkscape-font-specification:'Arial Italic'"
   id="tspan18">Streptococcus</tspan></text>
  <text
     x="537.16998"
     y="491.57999"
     text-anchor="middle"
     style="font-size:8.54px;font-family:Arial;white-space:pre;fill:#ff0000"
     textLength="73.019997"
     lengthAdjust="spacingAndGlyphs"
     id="text62"
     transform="matrix(0.99999998,0,0,1.0104743,101.68809,-209.57487)">ASV504 <tspan
   style="font-style:italic;font-variant:normal;font-weight:normal;font-stretch:normal;font-family:Arial;-inkscape-font-specification:'Arial Italic'"
   id="tspan26">Paludicola</tspan></text>
  <text
     x="537.16998"
     y="503.87"
     text-anchor="middle"
     style="font-size:8.54px;font-family:Arial;white-space:pre;fill:#0000ff"
     textLength="62.580002"
     lengthAdjust="spacingAndGlyphs"
     id="text63"
     transform="matrix(1.8149963,0,0,1.0104743,-335.5664,-209.57487)">ASV512 <tspan
   style="font-style:italic;font-variant:normal;font-weight:normal;font-stretch:normal;font-family:Arial;-inkscape-font-specification:'Arial Italic'"
   id="tspan25">Enterococcus faecalis</tspan></text>
  <text
     x="537.16998"
     y="516.15997"
     text-anchor="middle"
     style="font-size:8.54px;font-family:Arial;white-space:pre;fill:#ff0000"
     textLength="102.41"
     lengthAdjust="spacingAndGlyphs"
     id="text64"
     transform="matrix(0.99999998,0,0,1.0104743,101.68809,-209.57487)">ASV523 <tspan
   style="font-style:italic;font-variant:normal;font-weight:normal;font-stretch:normal;font-family:Arial;-inkscape-font-specification:'Arial Italic'"
   id="tspan24">Lachnoclostridium</tspan></text>
  <text
     x="537.16998"
     y="528.45001"
     text-anchor="middle"
     style="font-size:8.54px;font-family:Arial;white-space:pre;fill:#ff0000"
     textLength="44.099998"
     lengthAdjust="spacingAndGlyphs"
     id="text65"
     transform="matrix(2.6316476,0,0,1.0104743,-772.09096,-210.03727)">ASV538 Lachnospiraceae A2</text>
  <text
     x="537.16998"
     y="540.75"
     text-anchor="middle"
     style="font-size:8.54px;font-family:Arial;white-space:pre;fill:#0000ff"
     textLength="107.63"
     lengthAdjust="spacingAndGlyphs"
     id="text66"
     transform="matrix(0.99999998,0,0,1.0104743,101.68809,-209.57487)">ASV542 Clostridia UCG-014</text>
  <text
     x="537.16998"
     y="553.03998"
     text-anchor="middle"
     style="font-size:8.54px;font-family:Arial;white-space:pre;fill:#0000ff"
     textLength="107.63"
     lengthAdjust="spacingAndGlyphs"
     id="text67"
     transform="matrix(0.99999998,0,0,1.0104743,101.68809,-209.57487)">ASV551 Clostridia UCG-014</text>
  <text
     x="537.16998"
     y="565.33002"
     text-anchor="middle"
     style="font-size:8.54px;font-family:Arial;white-space:pre;fill:#0000ff"
     textLength="97.699997"
     lengthAdjust="spacingAndGlyphs"
     id="text68"
     transform="matrix(1.7729977,0,0,1.0104743,-309.99404,-209.57487)">ASV569 Lachnospiraceae GCA-900066575</text>
  <text
     x="537.16998"
     y="577.62"
     text-anchor="middle"
     style="font-size:8.54px;font-family:Arial;white-space:pre;fill:#ff0000"
     textLength="89.150002"
     lengthAdjust="spacingAndGlyphs"
     id="text69"
     transform="matrix(0.99999998,0,0,1.0104743,103.53455,-207.90341)">ASV646 <tspan
   style="font-style:italic;font-variant:normal;font-weight:normal;font-stretch:normal;font-family:Arial;-inkscape-font-specification:'Arial Italic'"
   id="tspan23">Anaerotruncus</tspan></text>
  <text
     x="537.16998"
     y="589.90997"
     text-anchor="middle"
     style="font-size:8.54px;font-family:Arial;white-space:pre;fill:#ff0000"
     textLength="81.080002"
     lengthAdjust="spacingAndGlyphs"
     id="text70"
     transform="matrix(0.99999998,0,0,1.0104743,103.53455,-207.90341)">ASV665 <tspan
   style="font-style:italic;font-variant:normal;font-weight:normal;font-stretch:normal;font-family:Arial;-inkscape-font-specification:'Arial Italic'"
   id="tspan22">Anaerofustis</tspan></text>
  <text
     x="537.16998"
     y="602.20001"
     text-anchor="middle"
     style="font-size:8.54px;font-family:Arial;white-space:pre;fill:#ff0000"
     textLength="54.529999"
     lengthAdjust="spacingAndGlyphs"
     id="text71"
     transform="matrix(1.5196427,0,0,1.0104743,-173.91421,-207.90341)">ASV684 Bacilli RF39</text>
  <text
     x="537.16998"
     y="614.48999"
     text-anchor="middle"
     style="font-size:8.54px;font-family:Arial;white-space:pre;fill:#ff0000"
     textLength="54.529999"
     lengthAdjust="spacingAndGlyphs"
     id="text72"
     transform="matrix(1.5451989,0,0,1.0104743,-187.40762,-207.90341)">ASV727 Bacilli RF39</text>
  <text
     x="537.16998"
     y="626.78998"
     text-anchor="middle"
     style="font-size:8.54px;font-family:Arial;white-space:pre;fill:#ff0000"
     textLength="95.790001"
     lengthAdjust="spacingAndGlyphs"
     id="text73"
     transform="matrix(0.99999998,0,0,1.0104743,103.53455,-207.90341)">ASV754 <tspan
   style="font-style:italic;font-variant:normal;font-weight:normal;font-stretch:normal;font-family:Arial;-inkscape-font-specification:'Arial Italic'"
   id="tspan21">Parabacteroides</tspan></text>
  <text
     x="537.16998"
     y="639.08002"
     text-anchor="middle"
     style="font-size:8.54px;font-family:Arial;white-space:pre;fill:#ff0000"
     textLength="88.160004"
     lengthAdjust="spacingAndGlyphs"
     id="text74"
     transform="matrix(0.99999998,0,0,1.0104743,103.53455,-207.90341)">ASV772 <tspan
   style="font-style:italic;font-variant:normal;font-weight:normal;font-stretch:normal;font-family:Arial;-inkscape-font-specification:'Arial Italic'"
   id="tspan20">Butyricicoccus</tspan></text>
  <text
     x="537.16998"
     y="651.37"
     text-anchor="middle"
     style="font-size:8.54px;font-family:Arial;white-space:pre;fill:#0000ff"
     textLength="107.63"
     lengthAdjust="spacingAndGlyphs"
     id="text75"
     transform="matrix(0.99999998,0,0,1.0104743,103.53455,-207.90341)">ASV844 Clostridia UCG-014</text>
  <text
     x="373.95001"
     y="245.75"
     text-anchor="middle"
     style="font-size:8.54px;font-family:Arial;white-space:pre;fill:#0000ff"
     textLength="84.860001"
     lengthAdjust="spacingAndGlyphs"
     id="text76"
     transform="matrix(0.99999998,0,0,1.0104743,-45.107565,-16.894197)">ASV20 <tspan
   style="font-style:italic;font-variant:normal;font-weight:normal;font-stretch:normal;font-family:Arial;-inkscape-font-specification:'Arial Italic';fill:#0000ff"
   id="tspan4">Ruminococcus</tspan></text>
  <text
     x="373.95001"
     y="258.04001"
     text-anchor="middle"
     style="font-size:8.54px;font-family:Arial;white-space:pre;fill:#ff0000"
     textLength="84.860001"
     lengthAdjust="spacingAndGlyphs"
     id="text77"
     transform="matrix(0.99999998,0,0,1.0104743,-44.668256,-40.154911)">ASV34 <tspan
   style="font-style:italic;font-variant:normal;font-weight:normal;font-stretch:normal;font-family:Arial;-inkscape-font-specification:'Arial Italic';fill:#ff0000"
   id="tspan5">Ruminococcus</tspan></text>
  <text
     x="373.95001"
     y="270.32999"
     text-anchor="middle"
     style="font-size:8.54px;font-family:Arial;white-space:pre;fill:#0000ff"
     textLength="67.809998"
     lengthAdjust="spacingAndGlyphs"
     id="text78"
     transform="matrix(0.99999998,0,0,1.0104743,-45.93744,-29.150845)">ASV44 <tspan
   style="font-style:italic;font-variant:normal;font-weight:normal;font-stretch:normal;font-family:Arial;-inkscape-font-specification:'Arial Italic'"
   id="tspan6">Roseburia</tspan></text>
  <text
     x="373.95001"
     y="282.62"
     text-anchor="middle"
     style="font-size:8.54px;font-family:Arial;white-space:pre;fill:#0000ff"
     textLength="67.809998"
     lengthAdjust="spacingAndGlyphs"
     id="text79"
     transform="matrix(0.99999998,0,0,1.0104743,-45.93744,-29.150845)">ASV45 <tspan
   style="font-style:italic;font-variant:normal;font-weight:normal;font-stretch:normal;font-family:Arial;-inkscape-font-specification:'Arial Italic'"
   id="tspan7">Roseburia</tspan></text>
  <text
     x="373.95001"
     y="294.91"
     text-anchor="middle"
     style="font-size:8.54px;font-family:Arial;white-space:pre;fill:#0000ff"
     textLength="54.529999"
     lengthAdjust="spacingAndGlyphs"
     id="text80"
     transform="matrix(1.4770491,0,0,1.0104743,-225.19111,-29.150845)">ASV339 Bacilli RF39</text>
  <text
     x="373.95001"
     y="307.20001"
     text-anchor="middle"
     style="font-size:8.54px;font-family:Arial;white-space:pre;fill:#0000ff"
     textLength="151.27"
     lengthAdjust="spacingAndGlyphs"
     id="text81"
     transform="matrix(0.99999998,0,0,1.0104743,-45.93744,-29.150845)"><tspan
       sodipodi:role="line"
       id="tspan83"
       x="373.95001"
       y="307.20001">ASV524 Christensenellaceae</tspan><tspan
       sodipodi:role="line"
       id="tspan84"
       x="373.95001"
       y="317.875"> R-7 group</tspan></text>
</svg>
